<svg xmlns="http://www.w3.org/2000/svg" xmlns:xlink="http://www.w3.org/1999/xlink" width="500" zoomAndPan="magnify" viewBox="0 0 375 374.999991" height="500" preserveAspectRatio="xMidYMid meet" version="1.0"><defs><g/><clipPath id="9b02c83dd6"><path d="M 113 72.257812 L 188 72.257812 L 188 125 L 113 125 Z M 113 72.257812 " clip-rule="nonzero"/></clipPath><clipPath id="946c50823f"><path d="M 0.5 140 L 151 140 L 151 236.519531 L 0.5 236.519531 Z M 0.5 140 " clip-rule="nonzero"/></clipPath><clipPath id="e3b2581974"><path d="M 150 140 L 300.5 140 L 300.5 236.519531 L 150 236.519531 Z M 150 140 " clip-rule="nonzero"/></clipPath><clipPath id="5e0489f3a3"><path d="M 120.027344 0.503906 L 181 0.503906 L 181 59 L 120.027344 59 Z M 120.027344 0.503906 " clip-rule="nonzero"/></clipPath><clipPath id="3f45e119f9"><path d="M 192.601562 29.480469 L 246.601562 29.480469 L 246.601562 81.980469 L 192.601562 81.980469 Z M 192.601562 29.480469 " clip-rule="nonzero"/></clipPath><clipPath id="95a080dba6"><path d="M 53.558594 29.480469 L 107.558594 29.480469 L 107.558594 81.980469 L 53.558594 81.980469 Z M 53.558594 29.480469 " clip-rule="nonzero"/></clipPath><clipPath id="0532ebe484"><rect x="0" width="301" y="0" height="237"/></clipPath><clipPath id="ab2d3dbd62"><rect x="0" width="222" y="0" height="89"/></clipPath></defs><g transform="matrix(1, 0, 0, 1, 37, 27)"><g clip-path="url(#0532ebe484)"><g clip-path="url(#9b02c83dd6)"><path fill="#115186" d="M 167.980469 95.519531 L 187.601562 86.726562 L 150.078125 72.304688 L 113.398438 88.746094 L 133.464844 96.457031 C 132.113281 99.273438 131.484375 102.238281 131.574219 105.359375 C 131.867188 116.0625 140.78125 124.507812 151.488281 124.214844 C 162.195312 123.921875 170.636719 115.007812 170.347656 104.300781 C 170.269531 101.183594 169.480469 98.253906 167.980469 95.519531 Z M 167.980469 95.519531 " fill-opacity="1" fill-rule="nonzero"/></g><path fill="#ffba30" d="M 92.425781 130.492188 C 112.851562 145.382812 142.300781 170.707031 149.550781 226.261719 C 137.460938 198.875 112.066406 166.105469 74.578125 156.203125 Z M 92.425781 130.492188 " fill-opacity="1" fill-rule="nonzero"/><path fill="#ffba30" d="M 208.574219 130.492188 C 188.148438 145.378906 158.699219 170.707031 151.449219 226.261719 C 163.539062 198.875 188.933594 166.105469 226.421875 156.203125 Z M 208.574219 130.492188 " fill-opacity="1" fill-rule="nonzero"/><path fill="#002240" d="M 150.5 129.886719 C 138.136719 129.886719 128.140625 124.058594 123.144531 116.5625 L 150.5 185.847656 L 177.855469 116.5625 C 172.859375 124.058594 163.449219 129.886719 150.5 129.886719 Z M 150.5 129.886719 " fill-opacity="1" fill-rule="nonzero"/><g clip-path="url(#946c50823f)"><path fill="#115186" d="M 150.980469 236.128906 L 150.5 236.453125 C 150.339844 236.34375 150.179688 236.238281 150.015625 236.128906 C 107.691406 208.105469 57.011719 200.339844 0.5 206.714844 L 69.90625 140.363281 L 50.335938 167.8125 C 89.71875 178 121.449219 198.8125 150.5 235.515625 C 150.660156 235.71875 150.820312 235.925781 150.980469 236.128906 Z M 150.980469 236.128906 " fill-opacity="1" fill-rule="nonzero"/></g><g clip-path="url(#e3b2581974)"><path fill="#115186" d="M 150.019531 236.128906 L 150.5 236.453125 C 150.660156 236.34375 150.820312 236.238281 150.984375 236.128906 C 193.308594 208.105469 243.988281 200.339844 300.5 206.714844 L 231.390625 140.363281 L 250.664062 167.8125 C 211.28125 178 179.550781 198.8125 150.5 235.515625 C 150.339844 235.71875 150.179688 235.925781 150.019531 236.128906 Z M 150.019531 236.128906 " fill-opacity="1" fill-rule="nonzero"/></g><g clip-path="url(#5e0489f3a3)"><path fill="#ffba30" d="M 150.492188 48.550781 L 169.316406 58.449219 L 165.722656 37.484375 L 180.957031 22.636719 L 159.90625 19.578125 L 150.492188 0.503906 L 141.078125 19.578125 L 120.027344 22.636719 L 135.257812 37.484375 L 131.664062 58.449219 Z M 150.492188 48.550781 " fill-opacity="1" fill-rule="nonzero"/></g><g clip-path="url(#3f45e119f9)"><path fill="#ffba30" d="M 219.828125 72.433594 L 236.65625 81.277344 L 233.445312 62.539062 L 247.058594 49.269531 L 228.246094 46.535156 L 219.828125 29.484375 L 211.414062 46.535156 L 192.601562 49.269531 L 206.214844 62.539062 L 203 81.277344 Z M 219.828125 72.433594 " fill-opacity="1" fill-rule="nonzero"/></g><g clip-path="url(#95a080dba6)"><path fill="#ffba30" d="M 80.785156 72.433594 L 97.613281 81.277344 L 94.398438 62.539062 L 108.015625 49.269531 L 89.203125 46.535156 L 80.785156 29.484375 L 72.371094 46.535156 L 53.558594 49.269531 L 67.171875 62.539062 L 63.957031 81.277344 Z M 80.785156 72.433594 " fill-opacity="1" fill-rule="nonzero"/></g></g></g><g transform="matrix(1, 0, 0, 1, 81, 274)"><g clip-path="url(#ab2d3dbd62)"><g fill="#115186" fill-opacity="1"><g transform="translate(25.08044, 48.025579)"><g><path d="M 11.453125 0.71875 C 9.890625 0.71875 8.351562 0.625 6.84375 0.4375 C 5.332031 0.25 3.816406 -0.0664062 2.296875 -0.515625 L 1.53125 -10.75 L 2.546875 -10.890625 C 3.429688 -7.503906 4.835938 -5.007812 6.765625 -3.40625 C 8.703125 -1.8125 11.03125 -1.015625 13.75 -1.015625 C 15.144531 -1.015625 16.425781 -1.285156 17.59375 -1.828125 C 18.757812 -2.367188 19.691406 -3.125 20.390625 -4.09375 C 21.085938 -5.0625 21.4375 -6.191406 21.4375 -7.484375 C 21.4375 -9.316406 21.035156 -10.734375 20.234375 -11.734375 C 19.441406 -12.734375 18.347656 -13.539062 16.953125 -14.15625 C 15.566406 -14.769531 13.972656 -15.378906 12.171875 -15.984375 C 9.117188 -17.078125 6.800781 -18.398438 5.21875 -19.953125 C 3.644531 -21.515625 2.859375 -23.570312 2.859375 -26.125 C 2.859375 -27.988281 3.375 -29.675781 4.40625 -31.1875 C 5.4375 -32.695312 6.851562 -33.894531 8.65625 -34.78125 C 10.457031 -35.664062 12.53125 -36.109375 14.875 -36.109375 C 16.363281 -36.109375 17.785156 -36.019531 19.140625 -35.84375 C 20.503906 -35.675781 21.847656 -35.421875 23.171875 -35.078125 L 24.03125 -25.5625 L 23.0625 -25.40625 C 22.113281 -28.332031 20.84375 -30.539062 19.25 -32.03125 C 17.65625 -33.519531 15.601562 -34.265625 13.09375 -34.265625 C 11.125 -34.265625 9.46875 -33.738281 8.125 -32.6875 C 6.78125 -31.632812 6.109375 -30.226562 6.109375 -28.46875 C 6.109375 -26.875 6.617188 -25.550781 7.640625 -24.5 C 8.660156 -23.445312 10.023438 -22.546875 11.734375 -21.796875 C 13.453125 -21.046875 15.328125 -20.316406 17.359375 -19.609375 C 19.972656 -18.691406 21.925781 -17.519531 23.21875 -16.09375 C 24.507812 -14.664062 25.15625 -12.765625 25.15625 -10.390625 C 25.15625 -8.285156 24.609375 -6.390625 23.515625 -4.703125 C 22.429688 -3.023438 20.863281 -1.703125 18.8125 -0.734375 C 16.757812 0.234375 14.304688 0.71875 11.453125 0.71875 Z M 11.453125 0.71875 "/></g></g></g><g fill="#115186" fill-opacity="1"><g transform="translate(55.833802, 48.025579)"><g><path d="M 29.171875 -35.90625 L 29.84375 -26.421875 L 28.828125 -26.328125 C 28.378906 -28.023438 27.796875 -29.441406 27.078125 -30.578125 C 26.367188 -31.710938 25.421875 -32.578125 24.234375 -33.171875 C 23.046875 -33.765625 21.503906 -34.0625 19.609375 -34.0625 L 17.421875 -34.0625 L 17.421875 -8.5 C 17.421875 -6.9375 17.488281 -5.671875 17.625 -4.703125 C 17.757812 -3.742188 18.113281 -2.972656 18.6875 -2.390625 C 19.257812 -1.816406 20.210938 -1.359375 21.546875 -1.015625 L 21.546875 0 L 8.8125 0 L 8.8125 -1.015625 C 10.164062 -1.359375 11.113281 -1.828125 11.65625 -2.421875 C 12.195312 -3.015625 12.523438 -3.800781 12.640625 -4.78125 C 12.765625 -5.769531 12.828125 -7.007812 12.828125 -8.5 L 12.828125 -34.0625 L 10.75 -34.0625 C 8.84375 -34.0625 7.296875 -33.765625 6.109375 -33.171875 C 4.921875 -32.578125 3.976562 -31.710938 3.28125 -30.578125 C 2.582031 -29.441406 2 -28.023438 1.53125 -26.328125 L 0.515625 -26.421875 L 1.171875 -35.90625 C 1.609375 -35.800781 2.15625 -35.707031 2.8125 -35.625 C 3.476562 -35.539062 4.15625 -35.5 4.84375 -35.5 L 25.515625 -35.5 C 26.191406 -35.5 26.859375 -35.539062 27.515625 -35.625 C 28.179688 -35.707031 28.734375 -35.800781 29.171875 -35.90625 Z M 29.171875 -35.90625 "/></g></g></g><g fill="#115186" fill-opacity="1"><g transform="translate(85.67053, 48.025579)"><g><path d="M 18.734375 -35.703125 L 29.03125 -8.5 C 29.769531 -6.5625 30.378906 -5.117188 30.859375 -4.171875 C 31.335938 -3.222656 31.851562 -2.535156 32.40625 -2.109375 C 32.96875 -1.691406 33.707031 -1.328125 34.625 -1.015625 L 34.625 0 L 22 0 L 22 -1.015625 C 23.695312 -1.390625 24.65625 -2.242188 24.875 -3.578125 C 25.09375 -4.921875 24.863281 -6.492188 24.1875 -8.296875 L 21.484375 -15.578125 L 10.796875 -15.640625 C 9.804688 -12.578125 9.097656 -10.007812 8.671875 -7.9375 C 8.253906 -5.875 8.273438 -4.28125 8.734375 -3.15625 C 9.191406 -2.039062 10.234375 -1.328125 11.859375 -1.015625 L 11.859375 0 L -0.203125 0 L -0.203125 -1.015625 C 0.441406 -1.148438 1.0625 -1.421875 1.65625 -1.828125 C 2.25 -2.234375 2.875 -2.953125 3.53125 -3.984375 C 4.195312 -5.023438 4.960938 -6.53125 5.828125 -8.5 C 6.691406 -10.46875 7.738281 -13.082031 8.96875 -16.34375 L 16.1875 -35.703125 Z M 15.78125 -30.8125 L 11.296875 -17.0625 L 20.921875 -17.0625 Z M 15.78125 -30.8125 "/></g></g></g><g fill="#115186" fill-opacity="1"><g transform="translate(124.264897, 48.025579)"><g><path d="M 19.8125 -16.75 C 22.519531 -11.625 25.171875 -7.710938 27.765625 -5.015625 C 30.367188 -2.316406 32.671875 -0.984375 34.671875 -1.015625 L 34.671875 0 C 33.828125 0.03125 33.039062 0.078125 32.3125 0.140625 C 31.582031 0.210938 30.554688 0.25 29.234375 0.25 C 27.867188 0.25 26.648438 -0.0625 25.578125 -0.6875 C 24.515625 -1.3125 23.484375 -2.269531 22.484375 -3.5625 C 21.484375 -4.851562 20.40625 -6.515625 19.25 -8.546875 C 18.09375 -10.585938 16.734375 -13 15.171875 -15.78125 C 14.835938 -15.75 14.488281 -15.722656 14.125 -15.703125 C 13.769531 -15.691406 13.40625 -15.6875 13.03125 -15.6875 C 12.625 -15.6875 12.207031 -15.703125 11.78125 -15.734375 C 11.363281 -15.765625 10.929688 -15.816406 10.484375 -15.890625 L 10.484375 -8.5 C 10.484375 -6.9375 10.550781 -5.671875 10.6875 -4.703125 C 10.820312 -3.742188 11.175781 -2.972656 11.75 -2.390625 C 12.332031 -1.816406 13.285156 -1.359375 14.609375 -1.015625 L 14.609375 0 L 1.890625 0 L 1.890625 -1.015625 C 3.242188 -1.359375 4.191406 -1.828125 4.734375 -2.421875 C 5.273438 -3.015625 5.601562 -3.800781 5.71875 -4.78125 C 5.84375 -5.769531 5.90625 -7.007812 5.90625 -8.5 L 5.90625 -26.984375 C 5.90625 -28.515625 5.84375 -29.765625 5.71875 -30.734375 C 5.601562 -31.703125 5.265625 -32.484375 4.703125 -33.078125 C 4.148438 -33.671875 3.210938 -34.132812 1.890625 -34.46875 L 1.890625 -35.5 L 8.5 -35.5 C 10.164062 -35.5 11.675781 -35.519531 13.03125 -35.5625 C 14.394531 -35.613281 15.398438 -35.640625 16.046875 -35.640625 C 18.722656 -35.640625 20.910156 -35.210938 22.609375 -34.359375 C 24.304688 -33.515625 25.570312 -32.390625 26.40625 -30.984375 C 27.238281 -29.578125 27.65625 -28.007812 27.65625 -26.28125 C 27.65625 -24.039062 26.957031 -22.09375 25.5625 -20.4375 C 24.164062 -18.789062 22.25 -17.5625 19.8125 -16.75 Z M 10.484375 -33.859375 L 10.484375 -17.671875 C 11.578125 -17.265625 12.800781 -17.0625 14.15625 -17.0625 C 16.9375 -17.226562 19.054688 -18.097656 20.515625 -19.671875 C 21.984375 -21.253906 22.71875 -23.234375 22.71875 -25.609375 C 22.71875 -27.035156 22.460938 -28.398438 21.953125 -29.703125 C 21.441406 -31.015625 20.597656 -32.09375 19.421875 -32.9375 C 18.253906 -33.789062 16.6875 -34.21875 14.71875 -34.21875 C 14.039062 -34.21875 13.335938 -34.191406 12.609375 -34.140625 C 11.878906 -34.085938 11.171875 -33.992188 10.484375 -33.859375 Z M 10.484375 -33.859375 "/></g></g></g><g fill="#115186" fill-opacity="1"><g transform="translate(160.975381, 48.025579)"><g><path d="M 11.453125 0.71875 C 9.890625 0.71875 8.351562 0.625 6.84375 0.4375 C 5.332031 0.25 3.816406 -0.0664062 2.296875 -0.515625 L 1.53125 -10.75 L 2.546875 -10.890625 C 3.429688 -7.503906 4.835938 -5.007812 6.765625 -3.40625 C 8.703125 -1.8125 11.03125 -1.015625 13.75 -1.015625 C 15.144531 -1.015625 16.425781 -1.285156 17.59375 -1.828125 C 18.757812 -2.367188 19.691406 -3.125 20.390625 -4.09375 C 21.085938 -5.0625 21.4375 -6.191406 21.4375 -7.484375 C 21.4375 -9.316406 21.035156 -10.734375 20.234375 -11.734375 C 19.441406 -12.734375 18.347656 -13.539062 16.953125 -14.15625 C 15.566406 -14.769531 13.972656 -15.378906 12.171875 -15.984375 C 9.117188 -17.078125 6.800781 -18.398438 5.21875 -19.953125 C 3.644531 -21.515625 2.859375 -23.570312 2.859375 -26.125 C 2.859375 -27.988281 3.375 -29.675781 4.40625 -31.1875 C 5.4375 -32.695312 6.851562 -33.894531 8.65625 -34.78125 C 10.457031 -35.664062 12.53125 -36.109375 14.875 -36.109375 C 16.363281 -36.109375 17.785156 -36.019531 19.140625 -35.84375 C 20.503906 -35.675781 21.847656 -35.421875 23.171875 -35.078125 L 24.03125 -25.5625 L 23.0625 -25.40625 C 22.113281 -28.332031 20.84375 -30.539062 19.25 -32.03125 C 17.65625 -33.519531 15.601562 -34.265625 13.09375 -34.265625 C 11.125 -34.265625 9.46875 -33.738281 8.125 -32.6875 C 6.78125 -31.632812 6.109375 -30.226562 6.109375 -28.46875 C 6.109375 -26.875 6.617188 -25.550781 7.640625 -24.5 C 8.660156 -23.445312 10.023438 -22.546875 11.734375 -21.796875 C 13.453125 -21.046875 15.328125 -20.316406 17.359375 -19.609375 C 19.972656 -18.691406 21.925781 -17.519531 23.21875 -16.09375 C 24.507812 -14.664062 25.15625 -12.765625 25.15625 -10.390625 C 25.15625 -8.285156 24.609375 -6.390625 23.515625 -4.703125 C 22.429688 -3.023438 20.863281 -1.703125 18.8125 -0.734375 C 16.757812 0.234375 14.304688 0.71875 11.453125 0.71875 Z M 11.453125 0.71875 "/></g></g></g><g fill="#002240" fill-opacity="1"><g transform="translate(0.65173, 81.883158)"><g><path d="M 13.953125 0 L 1.640625 0 L 1.640625 -18.453125 L 13.953125 -18.453125 L 13.953125 -15.328125 L 5.125 -15.328125 L 5.125 -10.78125 L 13.03125 -10.78125 L 13.03125 -7.6875 L 5.125 -7.6875 L 5.125 -3.125 L 13.953125 -3.125 Z M 13.953125 0 "/></g></g></g><g fill="#002240" fill-opacity="1"><g transform="translate(24.134548, 81.883158)"><g><path d="M 7.015625 0 L 1.640625 0 L 1.640625 -18.453125 L 7.015625 -18.453125 C 10.140625 -18.453125 12.53125 -17.65625 14.1875 -16.0625 C 15.84375 -14.46875 16.671875 -12.1875 16.671875 -9.21875 C 16.671875 -6.269531 15.835938 -3.992188 14.171875 -2.390625 C 12.515625 -0.796875 10.128906 0 7.015625 0 Z M 5.125 -15.328125 L 5.125 -3.125 L 6.96875 -3.125 C 8.1875 -3.125 9.265625 -3.3125 10.203125 -3.6875 C 11.140625 -4.0625 11.867188 -4.695312 12.390625 -5.59375 C 12.921875 -6.488281 13.1875 -7.695312 13.1875 -9.21875 C 13.1875 -10.65625 12.925781 -11.816406 12.40625 -12.703125 C 11.894531 -13.597656 11.175781 -14.257812 10.25 -14.6875 C 9.320312 -15.113281 8.234375 -15.328125 6.984375 -15.328125 Z M 5.125 -15.328125 "/></g></g></g><g fill="#002240" fill-opacity="1"><g transform="translate(50.204879, 81.883158)"><g><path d="M 8.90625 0.34375 C 7.144531 0.34375 5.710938 0.0507812 4.609375 -0.53125 C 3.515625 -1.125 2.710938 -1.953125 2.203125 -3.015625 C 1.703125 -4.085938 1.453125 -5.316406 1.453125 -6.703125 L 1.453125 -18.453125 L 4.953125 -18.453125 L 4.953125 -6.703125 C 4.953125 -5.941406 5.070312 -5.257812 5.3125 -4.65625 C 5.5625 -4.0625 5.972656 -3.597656 6.546875 -3.265625 C 7.128906 -2.941406 7.914062 -2.78125 8.90625 -2.78125 C 9.90625 -2.78125 10.691406 -2.941406 11.265625 -3.265625 C 11.835938 -3.597656 12.242188 -4.0625 12.484375 -4.65625 C 12.722656 -5.257812 12.84375 -5.941406 12.84375 -6.703125 L 12.84375 -18.453125 L 16.34375 -18.453125 L 16.34375 -6.703125 C 16.34375 -5.316406 16.085938 -4.085938 15.578125 -3.015625 C 15.078125 -1.953125 14.273438 -1.125 13.171875 -0.53125 C 12.078125 0.0507812 10.65625 0.34375 8.90625 0.34375 Z M 8.90625 0.34375 "/></g></g></g><g fill="#002240" fill-opacity="1"><g transform="translate(76.492848, 81.883158)"><g><path d="M 9.890625 0.34375 C 8.359375 0.34375 7.03125 0.0859375 5.90625 -0.421875 C 4.789062 -0.941406 3.863281 -1.644531 3.125 -2.53125 C 2.394531 -3.425781 1.847656 -4.445312 1.484375 -5.59375 C 1.117188 -6.75 0.9375 -7.960938 0.9375 -9.234375 C 0.9375 -10.515625 1.117188 -11.726562 1.484375 -12.875 C 1.847656 -14.03125 2.394531 -15.050781 3.125 -15.9375 C 3.863281 -16.820312 4.789062 -17.519531 5.90625 -18.03125 C 7.03125 -18.539062 8.359375 -18.796875 9.890625 -18.796875 C 11.410156 -18.796875 12.722656 -18.535156 13.828125 -18.015625 C 14.941406 -17.503906 15.828125 -16.785156 16.484375 -15.859375 C 17.148438 -14.941406 17.566406 -13.878906 17.734375 -12.671875 L 13.9375 -12.671875 C 13.769531 -13.660156 13.3125 -14.40625 12.5625 -14.90625 C 11.8125 -15.414062 10.890625 -15.671875 9.796875 -15.671875 C 8.671875 -15.671875 7.71875 -15.398438 6.9375 -14.859375 C 6.164062 -14.316406 5.578125 -13.5625 5.171875 -12.59375 C 4.773438 -11.632812 4.578125 -10.515625 4.578125 -9.234375 C 4.578125 -7.960938 4.773438 -6.835938 5.171875 -5.859375 C 5.578125 -4.890625 6.164062 -4.132812 6.9375 -3.59375 C 7.71875 -3.050781 8.671875 -2.78125 9.796875 -2.78125 C 10.890625 -2.78125 11.804688 -3.046875 12.546875 -3.578125 C 13.296875 -4.109375 13.757812 -4.914062 13.9375 -6 L 17.734375 -6 C 17.566406 -4.726562 17.148438 -3.613281 16.484375 -2.65625 C 15.828125 -1.707031 14.941406 -0.96875 13.828125 -0.4375 C 12.722656 0.0820312 11.410156 0.34375 9.890625 0.34375 Z M 9.890625 0.34375 "/></g></g></g><g fill="#002240" fill-opacity="1"><g transform="translate(103.337, 81.883158)"><g><path d="M 3.828125 0 L 0.171875 0 L 6.671875 -18.453125 L 10.5 -18.453125 L 17 0 L 13.34375 0 L 12.09375 -3.796875 L 5.0625 -3.796875 Z M 8.59375 -14.65625 L 6.046875 -6.84375 L 11.125 -6.84375 Z M 8.59375 -14.65625 "/></g></g></g><g fill="#002240" fill-opacity="1"><g transform="translate(126.843842, 81.883158)"><g><path d="M 9.359375 0 L 5.875 0 L 5.875 -15.328125 L 0.234375 -15.328125 L 0.234375 -18.453125 L 14.96875 -18.453125 L 14.96875 -15.328125 L 9.359375 -15.328125 Z M 9.359375 0 "/></g></g></g><g fill="#002240" fill-opacity="1"><g transform="translate(150.544298, 81.883158)"><g><path d="M 5.125 0 L 1.640625 0 L 1.640625 -18.453125 L 5.125 -18.453125 Z M 5.125 0 "/></g></g></g><g fill="#002240" fill-opacity="1"><g transform="translate(165.780933, 81.883158)"><g><path d="M 9.890625 0.34375 C 8.378906 0.34375 7.054688 0.0859375 5.921875 -0.421875 C 4.796875 -0.941406 3.863281 -1.644531 3.125 -2.53125 C 2.394531 -3.425781 1.847656 -4.445312 1.484375 -5.59375 C 1.117188 -6.75 0.9375 -7.960938 0.9375 -9.234375 C 0.9375 -10.515625 1.117188 -11.726562 1.484375 -12.875 C 1.847656 -14.03125 2.394531 -15.050781 3.125 -15.9375 C 3.863281 -16.820312 4.796875 -17.519531 5.921875 -18.03125 C 7.054688 -18.539062 8.378906 -18.796875 9.890625 -18.796875 C 11.421875 -18.796875 12.75 -18.539062 13.875 -18.03125 C 15.007812 -17.519531 15.941406 -16.820312 16.671875 -15.9375 C 17.410156 -15.050781 17.957031 -14.03125 18.3125 -12.875 C 18.675781 -11.726562 18.859375 -10.515625 18.859375 -9.234375 C 18.859375 -7.960938 18.675781 -6.75 18.3125 -5.59375 C 17.957031 -4.445312 17.410156 -3.425781 16.671875 -2.53125 C 15.941406 -1.644531 15.007812 -0.941406 13.875 -0.421875 C 12.75 0.0859375 11.421875 0.34375 9.890625 0.34375 Z M 9.890625 -2.78125 C 11.035156 -2.78125 12.003906 -3.050781 12.796875 -3.59375 C 13.585938 -4.132812 14.191406 -4.890625 14.609375 -5.859375 C 15.023438 -6.835938 15.234375 -7.960938 15.234375 -9.234375 C 15.234375 -10.515625 15.023438 -11.632812 14.609375 -12.59375 C 14.191406 -13.550781 13.585938 -14.300781 12.796875 -14.84375 C 12.003906 -15.382812 11.035156 -15.65625 9.890625 -15.65625 C 8.773438 -15.65625 7.816406 -15.382812 7.015625 -14.84375 C 6.222656 -14.300781 5.617188 -13.550781 5.203125 -12.59375 C 4.785156 -11.632812 4.578125 -10.515625 4.578125 -9.234375 C 4.578125 -7.960938 4.785156 -6.835938 5.203125 -5.859375 C 5.617188 -4.890625 6.222656 -4.132812 7.015625 -3.59375 C 7.816406 -3.050781 8.773438 -2.78125 9.890625 -2.78125 Z M 9.890625 -2.78125 "/></g></g></g><g fill="#002240" fill-opacity="1"><g transform="translate(194.076035, 81.883158)"><g><path d="M 5.125 0 L 1.640625 0 L 1.640625 -18.453125 L 5.5625 -18.453125 L 13.140625 -5.25 L 13.140625 -18.453125 L 16.609375 -18.453125 L 16.609375 0 L 12.671875 0 L 5.125 -13.234375 Z M 5.125 0 "/></g></g></g></g></g></svg>